<?xml version="1.0" standalone="no"?>
<!DOCTYPE svg PUBLIC "-//W3C//DTD SVG 20010904//EN"
 "http://www.w3.org/TR/2001/REC-SVG-20010904/DTD/svg10.dtd">
<svg version="1.0" xmlns="http://www.w3.org/2000/svg"
 width="500.000000pt" height="500.000000pt" viewBox="0 0 500.000000 500.000000"
 preserveAspectRatio="xMidYMid meet">
<metadata>
Created by potrace 1.14, written by Peter Selinger 2001-2017
</metadata>
<g transform="translate(0.000000,500.000000) scale(0.100000,-0.100000)"
fill="#000000" stroke="none">
<path d="M1452 4008 c-13 -13 -16 -47 -4 -64 25 -36 82 -20 82 24 0 33 -16 52
-45 52 -12 0 -26 -5 -33 -12z"/>
<path d="M2155 4009 c-54 -33 -82 -93 -71 -154 11 -60 73 -117 129 -117 128 0
190 144 103 240 -28 30 -40 36 -87 39 -31 2 -63 -2 -74 -8z"/>
<path d="M3099 3901 c-21 -22 -29 -39 -29 -66 0 -48 44 -95 89 -95 38 0 89 45
92 80 3 46 -1 57 -26 84 -34 37 -87 36 -126 -3z"/>
<path d="M1165 3601 c-50 -13 -92 -39 -136 -84 -58 -58 -83 -117 -83 -198 -1
-166 141 -310 306 -310 77 0 136 23 199 79 121 108 118 301 -8 426 -70 71
-194 109 -278 87z"/>
<path d="M2391 3579 c-21 -9 -40 -22 -42 -27 -2 -6 -31 -13 -65 -17 -91 -9
-118 -19 -131 -46 -22 -46 -44 -57 -118 -60 -151 -6 -228 -84 -251 -254 -3
-27 -8 -59 -10 -70 -17 -86 -16 -145 5 -187 11 -24 33 -52 47 -63 15 -11 50
-40 77 -65 51 -46 104 -87 118 -92 5 -2 11 -30 14 -63 13 -134 54 -237 118
-291 38 -33 120 -71 162 -77 l30 -4 -1 -69 c-1 -38 -2 -80 -3 -94 -1 -21 -12
-30 -74 -57 -39 -18 -90 -34 -112 -38 -99 -13 -235 -50 -292 -78 -115 -56
-206 -166 -251 -302 -19 -55 -72 -296 -86 -389 -4 -21 -8 -42 -11 -46 -18 -29
85 -48 275 -49 56 -1 67 -4 75 -22 17 -37 98 -54 355 -74 41 -3 107 -8 145
-10 92 -5 536 -5 600 -1 96 7 180 17 235 27 36 7 80 7 130 1 41 -6 149 -9 240
-7 140 3 189 6 275 19 31 5 32 17 9 123 -12 60 -26 124 -29 143 -3 19 -8 42
-10 50 -2 8 -6 26 -9 40 -28 149 -89 273 -173 357 -78 76 -158 116 -348 174
-76 23 -153 52 -170 63 -17 12 -61 37 -97 55 -66 34 -68 36 -92 102 -25 68
-56 177 -56 198 0 6 3 10 8 10 32 -5 65 5 90 29 30 28 99 134 122 188 7 17 26
38 41 46 44 25 64 65 66 130 2 58 1 59 -38 87 -33 25 -124 67 -181 85 -14 4
-18 17 -18 57 0 51 0 51 28 44 15 -3 64 -24 109 -46 45 -21 83 -39 85 -39 2 0
0 38 -4 84 -9 95 -29 150 -86 234 -74 108 -143 169 -224 198 -48 17 -180 44
-216 44 -12 0 -40 12 -62 26 -33 22 -48 26 -82 21 -39 -5 -41 -4 -24 8 18 13
16 14 -17 13 -21 -1 -55 -9 -76 -19z"/>
<path d="M3589 3124 c-139 -41 -194 -218 -97 -311 50 -46 87 -62 145 -59 87 5
159 66 182 154 35 128 -99 254 -230 216z"/>
<path d="M1500 2466 c-108 -47 -161 -173 -124 -296 16 -53 63 -114 106 -136
46 -24 147 -21 200 4 71 35 126 139 119 227 -4 48 -8 59 -31 100 -29 52 -49
74 -85 93 -36 19 -149 23 -185 8z m46 -108 c4 -7 3 -8 -4 -4 -7 4 -12 1 -12
-9 0 -9 4 -14 9 -11 5 4 4 -5 -2 -18 -7 -14 -14 -22 -17 -19 -9 9 -5 58 5 65
13 10 13 10 21 -4z"/>
<path d="M3597 2320 c-81 -72 1 -200 99 -154 17 8 36 26 43 40 44 97 -64 184
-142 114z"/>
<path d="M1087 1554 c-3 -4 -2 -15 3 -25 6 -9 7 -24 4 -32 -3 -8 0 -18 7 -23
8 -5 11 -2 6 8 -3 9 -2 19 2 24 9 10 -13 57 -22 48z"/>
<path d="M1120 1549 c0 -5 5 -7 10 -4 6 3 10 8 10 11 0 2 -4 4 -10 4 -5 0 -10
-5 -10 -11z"/>
<path d="M1135 1490 c3 -5 11 -10 16 -10 6 0 7 5 4 10 -3 6 -11 10 -16 10 -6
0 -7 -4 -4 -10z"/>
</g>
</svg>
